<svg xmlns="http://www.w3.org/2000/svg" version="1.1" xmlns:xlink="http://www.w3.org/1999/xlink" xmlns:svgjs="http://svgjs.dev/svgjs" width="1500" height="1500" viewBox="0 0 1500 1500"><rect width="1500" height="1500" fill="#471aa0"></rect><g transform="matrix(0.6666666666666666,0,0,0.6666666666666666,250.47130429603982,97.19568151147104)"><svg viewBox="0 0 189 247" data-background-color="#471aa0" preserveAspectRatio="xMidYMid meet" height="1960" width="1500" xmlns="http://www.w3.org/2000/svg" xmlns:xlink="http://www.w3.org/1999/xlink"><g id="tight-bounds" transform="matrix(1,0,0,1,-0.08907651195153221,-0.09999999999999432)"><svg viewBox="0 0 189.17815302390306 247.2" height="247.2" width="189.17815302390306"><g><svg viewBox="0 0 385.20898395721923 503.3544270949346" height="247.2" width="189.17815302390306"><g transform="matrix(1,0,0,1,0,256.1544270949346)"><svg viewBox="0 0 385.20898395721923 247.2" height="247.2" width="385.20898395721923"><g id="textblocktransform"><svg viewBox="0 0 385.20898395721923 247.2" height="247.2" width="385.20898395721923" id="textblock"><g><svg viewBox="0 0 385.20898395721923 247.2" height="247.2" width="385.20898395721923"><g transform="matrix(1,0,0,1,0,0)"><svg width="385.20898395721923" viewBox="-1.55 -26.05 72.84 46.75" height="247.2" data-palette-color="#ffffff"><path d="M2.8-4.85L2.8-4.85Q-0.2-4.85-0.2-6.15L-0.2-6.15Q-0.2-7.7 3.35-9.83 6.9-11.95 9.75-11.95L9.75-11.95Q11.2-11.95 11.2-11.05L11.2-11.05Q11.2-10.55 10.45-9.95 9.7-9.35 9-9 8.3-8.65 8.2-8.65L8.2-8.65Q7.9-8.65 7.8-8.9L7.8-8.9Q7.7-9.25 8.33-9.63 8.95-10 8.95-10.45 8.95-10.9 7.83-10.9 6.7-10.9 4.3-9.33 1.9-7.75 1.9-6.75L1.9-6.75Q1.9-6 3.65-6L3.65-6Q3.95-6 4.75-6.05 5.55-6.1 5.55-5.85 5.55-5.6 3.08-4.05 0.6-2.5 0.6-1.4L0.6-1.4Q0.6-0.15 2.23-0.15 3.85-0.15 5.9-1L5.9-1Q9.2-2.45 11.9-4.1L11.9-4.1 12.85-4.7Q12.9-4.6 12.9-4.3 12.9-4 12.45-3.8L12.45-3.8Q9.8-2 6.65-0.38 3.5 1.25 0.98 1.25-1.55 1.25-1.55-0.43-1.55-2.1 2.8-4.85ZM17.55-1.2L18.05-1.4Q20.45-2.4 23.2-4.1L23.2-4.1 24.15-4.7Q24.2-4.6 24.2-4.3 24.2-4 23.75-3.8L23.75-3.8Q21.1-2 18.45-0.65 15.8 0.7 13.55 0.7L13.55 0.7Q10.7 0.7 10.7-1.35L10.7-1.35Q10.7-3.8 14.12-6.88 17.55-9.95 20.9-9.95L20.9-9.95Q22.3-9.95 22.3-8.75L22.3-8.75Q22.3-8.05 21.05-7L21.05-7Q19.3-5.55 18.85-5.55 18.4-5.55 18.4-5.95L18.4-5.95Q18.4-6.1 18.6-6.25L18.6-6.25Q19.1-6.55 19.72-7.18 20.35-7.8 20.35-8.25L20.35-8.25Q20.35-8.95 19.7-8.95L19.7-8.95Q18.3-8.95 15.6-6.43 12.9-3.9 12.9-2.35L12.9-2.35Q12.9-0.6 14.8-0.6L14.8-0.6Q16.05-0.6 17.55-1.2L17.55-1.2ZM23.5-0.65L23.5-0.65Q23.95-0.65 28.52-4.63 33.09-8.6 33.9-8.6 34.7-8.6 34.7-7.9L34.7-7.9Q34.7-7.35 33.7-6.2 32.7-5.05 31.72-3.7 30.75-2.35 30.75-1.3L30.75-1.3Q30.75-0.75 31.57-0.75 32.4-0.75 34.5-1.73 36.59-2.7 38.2-3.7L38.2-3.7 39.8-4.7Q39.84-4.6 39.84-4.3 39.84-4 39.39-3.8L39.39-3.8Q32.65 0.8 30 0.8L30 0.8Q28.7 0.8 28.7-0.6L28.7-0.6Q28.7-1.55 29.39-2.9 30.09-4.25 30.8-5.15L30.8-5.15 31.45-6.05Q29.2-4.35 26.8-2.23 24.39-0.1 23.14 0.98 21.89 2.05 21.39 2.05 20.89 2.05 20.89 1.33 20.89 0.6 23.25-3.7 25.59-8 28.67-12.98 31.75-17.95 35.12-22 38.5-26.05 40.25-26.05L40.25-26.05Q41-26.05 41.3-25.35L41.3-25.35Q41.45-25.1 41.45-24.75L41.45-24.75Q41.45-21.3 31.09-11.5L31.09-11.5Q29.14-9.6 27.3-8L27.3-8Q23.5-1.6 23.5-0.65ZM39.8-24.2L39.8-24.2Q39.8-24.7 39.55-24.7L39.55-24.7Q38.55-24.7 35.34-20.3 32.15-15.9 28.55-10.05L28.55-10.05Q39.8-20.3 39.8-24.2ZM49.39-3.5L49.39-3.5Q47.84-2.55 45.79-2.55L45.79-2.55 45.19-2.55Q43.84-1 42.32-0.03 40.79 0.95 39.69 0.95L39.69 0.95Q38.14 0.95 38.14-1.05 38.14-3.05 40.29-5.7L40.29-5.7Q40.09-6.25 40.09-7.05L40.09-7.05Q40.09-8.8 41.62-10.08 43.14-11.35 44.59-11.35L44.59-11.35Q47.64-11.35 47.64-8.05L47.64-8.05Q47.64-5.85 45.74-3.25L45.74-3.25 46.34-3.25Q47.94-3.25 49.09-4L49.09-4Q49.24-4.15 49.49-4.15 49.74-4.15 49.74-3.98 49.74-3.8 49.39-3.5ZM44.59-9.25L44.59-9.25Q44.84-9.35 44.99-9.35 45.14-9.35 45.14-9.13 45.14-8.9 44.59-8.5L44.59-8.5Q42.59-6.95 41.59-5.7L41.59-5.7Q42.69-3.95 44.94-3.4L44.94-3.4Q46.89-5.7 46.89-7.7L46.89-7.7Q46.89-8.85 46.14-9.45 45.39-10.05 44.22-10.05 43.04-10.05 42.04-9.38 41.04-8.7 41.04-7.93 41.04-7.15 41.19-6.7L41.19-6.7Q42.74-8.3 44.59-9.25ZM40.89-4.6L40.89-4.6Q40.09-3.25 40.09-1.6L40.09-1.6Q40.09-0.7 40.89-0.7L40.89-0.7Q42.24-0.7 44.24-2.7L44.24-2.7Q41.99-3.1 40.89-4.6ZM48.64-1.3L48.64-1.3Q50.89-1.25 51.79 0.05L51.79 0.05Q56.49-2.4 60.14-4.75L60.14-4.75Q60.19-4.6 60.19-4.3 60.19-4 59.74-3.8L59.74-3.8Q57.99-2.6 56.14-1.5 54.29-0.4 52.14 0.8L52.14 0.8Q52.29 1.3 52.29 2L52.29 2Q52.29 4.65 49.97 8.58 47.64 12.5 44.52 15.38 41.39 18.25 39.29 18.25L39.29 18.25Q38.34 18.25 38.34 16.75 38.34 15.25 43.59 5.1L43.59 5.1Q42.49 5.5 41.84 5.5L41.84 5.5Q40.04 5.5 40.04 4.45L40.04 4.45Q40.04 3.2 42.22 1.4 44.39-0.4 46.84-1.05L46.84-1.05Q52.44-11.2 57.69-18.48 62.94-25.75 65.69-25.75L65.69-25.75Q66.79-25.75 66.79-24.65L66.79-24.65Q66.79-23 65.57-20.7 64.34-18.4 62.54-16.18 60.74-13.95 58.52-11.6 56.29-9.25 54.49-7.58 52.69-5.9 51.29-4.63 49.89-3.35 49.84-3.3L49.84-3.3Q49.59-2.9 49.17-2.18 48.74-1.45 48.64-1.3ZM40.44 15.85L40.44 15.85Q40.44 16.4 40.79 16.4L40.79 16.4Q42.19 16.4 44.62 13.83 47.04 11.25 48.97 7.8 50.89 4.35 50.89 2.1L50.89 2.1Q50.89 1.7 50.84 1.5L50.84 1.5Q48.04 3.1 45.49 4.3L45.49 4.3Q40.44 13.55 40.44 15.85ZM64.99-23.4L64.99-23.4Q64.99-24 64.44-24L64.44-24Q63.49-23.95 59.59-18.43 55.69-12.9 51.04-5.3L51.04-5.3Q54.14-8.05 57.79-12.05L57.79-12.05Q64.99-19.85 64.99-23.4ZM43.39 1.33Q42.09 2.3 42.09 3 42.09 3.7 43.39 3.7L43.39 3.7Q43.59 3.7 44.39 3.5L44.39 3.5 46.34-0.1Q44.69 0.35 43.39 1.33ZM46.34 2.7L46.34 2.7Q47.59 2.2 50.59 0.65L50.59 0.65Q49.94-0.4 48.24-0.4L48.24-0.4 48.14-0.4Q47.79 0.2 47.19 1.25 46.59 2.3 46.34 2.7ZM71.29-9.35Q71.29-9.3 70.16-7.58 69.04-5.85 68.41-4.95 67.79-4.05 63.19 3.45L63.19 3.45Q63.59 3.4 64.49 3.4L64.49 3.4Q66.89 3.4 66.89 4.65L66.89 4.65Q66.89 5.35 65.99 6.3 65.09 7.25 64.59 7.25 64.09 7.25 64.09 6.9L64.09 6.9Q64.09 6.7 64.64 6.28 65.19 5.85 65.19 5.28 65.19 4.7 64.21 4.7 63.24 4.7 62.34 4.85L62.34 4.85Q57.79 12.3 54.49 16.5 51.19 20.7 48.84 20.7L48.84 20.7Q47.14 20.7 47.14 18.95L47.14 18.95Q47.14 15.95 51.66 10.63 56.19 5.3 61.49 3.8L61.49 3.8 66.29-4.5Q64.19-2.6 61.96-1.15 59.74 0.3 58.59 0.3 57.44 0.3 57.44-0.75L57.44-0.75Q57.44-2.35 62.69-9.6L62.69-9.6Q62.94-10 63.34-10L63.34-10Q64.49-9.65 64.49-9.5 64.49-9.35 64.19-8.9L64.19-8.9Q59.69-2.8 59.69-1.85L59.69-1.85Q59.69-1.25 60.36-1.25 61.04-1.25 63.16-2.85 65.29-4.45 66.79-6.1L66.79-6.1 69.59-9.5Q69.89-9.85 70.34-9.85L70.34-9.85Q71.29-9.7 71.29-9.35L71.29-9.35ZM51.99 11.68Q50.54 13.65 49.69 15.43 48.84 17.2 48.84 18.23 48.84 19.25 49.64 19.25L49.64 19.25Q52.14 19.25 60.59 5.25L60.59 5.25Q58.09 6.05 55.76 7.88 53.44 9.7 51.99 11.68Z" opacity="1" transform="matrix(1,0,0,1,0,0)" fill="#ffffff" class="wordmark-text-0" data-fill-palette-color="primary" id="text-0"></path></svg></g></svg></g></svg></g></svg></g><g transform="matrix(1,0,0,1,73.57491593582887,0)"><svg viewBox="0 0 238.0591520855615 197.7964398949346" height="197.7964398949346" width="238.0591520855615"><g><svg xmlns="http://www.w3.org/2000/svg" xmlns:xlink="http://www.w3.org/1999/xlink" version="1.1" x="0" y="0" viewBox="0.084 5.438 71.07 59.05000022129204" enable-background="new 0 0 71.467 71.465" xml:space="preserve" width="238.0591520855615" height="197.7964398949346" class="icon-icon-0" data-fill-palette-color="accent" id="icon-0"><path d="M60.812 17.227C60.36 11.34 55.928 6.581 50.192 5.625c-0.688-0.114-1.388-0.187-2.11-0.187-0.729 0-1.442 0.067-2.138 0.187-1.691 0.29-3.268 0.911-4.666 1.793-1.365 0.861-2.561 1.961-3.51 3.26-0.028 0.035-0.061 0.067-0.085 0.104C37.616 10.875 0.084 64.486 0.084 64.486c0.074 0 21.532 0.002 30.384 0.002 16.752 0.002 30.336-13.553 30.388-30.293 0-0.03 0.001-0.061 0.002-0.092v-6.768l10.296-5.044L60.812 17.227zM49.561 19.156c-1.042 0-1.885-0.845-1.885-1.886 0-1.041 0.843-1.883 1.885-1.883 1.041 0 1.886 0.842 1.886 1.883C51.446 18.311 50.602 19.156 49.561 19.156z" fill="#ffffff" data-fill-palette-color="accent"></path></svg></g></svg></g><g></g></svg></g><defs></defs></svg><rect width="189.17815302390306" height="247.2" fill="none" stroke="none" visibility="hidden"></rect></g></svg></g></svg>